# xmcd
#
# Track frame offsets:
# 150
# 18711
# 31155
# 49778
# 70303
# 86593
# 104253
# 124917
# 138636
# 156448
# 176869
# 197296
#
# Disc length: 2852 seconds
#
#
# Revision: 0
# Processed by: cddbd v1.5.2PL0 Copyright (c) Steve Scherf et al.
# Submitted via: FreeRIP 2.951 
#
DISCID=a80b220c
DTITLE=João Vilarim - Jardim dos Sentidos
DYEAR=2006
DGENRE=Country
TTITLE0=Canoeiro do Tietê
TTITLE1=Água e sal
TTITLE2=Chuva
TTITLE3=Ao longo das eras
TTITLE4=Fim dos heróis
TTITLE5=Capão do Embira
TTITLE6=No laço da viola
TTITLE7=Um sonho e um segredo
TTITLE8=No bojo do jacarandá
TTITLE9=Seguindo os passos da imaginação
TTITLE10=Pedaços de chão
TTITLE11=Jardim dos sentidos
EXTD=
EXTT0=
EXTT1=
EXTT2=
EXTT3=
EXTT4=
EXTT5=
EXTT6=
EXTT7=
EXTT8=
EXTT9=
EXTT10=
EXTT11=
PLAYORDER=
